<svg height="512" width="423" xmlns="http://www.w3.org/2000/svg"><path d="m292.1383057 461.6577454c118.1775208-42.6624451 175.5065613-171.4753113 89.4493408-275.3063354-5.2230225-29.8352051-14.3403015-57.5273895-26.5656128-81.9514313l10.5341492-93.8895264c.764679-6.8309016-5.913269-12.0659075-12.3442383-9.6936045l-64.7900696 23.8451014c-51.7322083-33.5977507-102.9018555-32.3213096-153.562561.4971008l-66.128891-24.3421909c-6.4426994-2.3723028-13.1168365 2.8627031-12.360054 9.6936045l10.9204407 97.173233c-11.4067726 23.6069412-19.9242783 50.1670609-24.9019966 78.6732407-77.9911118 93.6444397-48.4447479 223.320282 89.3373566 275.2780762-23.7865335 9.8997765-25.1478311 46.1102563-3.3882943 50.3649865 8.501236 0 15.4027405-10.1246643 15.4027405-22.6180115 0 12.4933472 6.8818817 22.6180115 15.3833466 22.6180115 8.5091248 0 15.3948364-10.1246643 15.3948364-22.6180115 0 12.4933472 6.8976746 22.6180115 15.3989105 22.6180115 8.497406 0 15.4330139-10.2782898 15.4330139-22.7716675 4.2439117.3641663 8.4576721.3226318 12.6425781-.1101074 0 12.4933777 6.874939 22.8817749 15.3682709 22.8817749 8.5093689 0 15.3950806-10.1246643 15.3950806-22.6180115 0 12.4933472 6.9015045 22.6180115 15.3988953 22.6180115 8.5053101 0 15.3989258-10.1246643 15.3989258-22.6180115 0 12.4933472 6.8974304 22.6180115 15.4027405 22.6180115 19.802307-1.9197693 21.8997496-39.0351562-2.8189088-50.3422546zm-151.6052857-207.4824372c-107.740879-8.8270874-106.2818146-177.7157287.9528046-185.5123138 29.5726471 0 55.4602356 17.960289 69.725174 44.8260422 14.264679-26.8726959 40.1532288-44.8377686 69.7199097-44.8377686 108.9713135 6.7139969 108.6065674 175.9673767 2.4390564 185.4814453 84.6460266 54.6855316 65.6779785 204.8437347-71.3871155 204.8437347-129.0053407-.0000076-156.9397393-142.8628005-71.4498292-204.8011398zm6.0897675 66.6541291c0 21.8390808 32.5545349 21.8390808 32.5545349 0zm49.4474487 0c0 21.8390808 32.5545349 21.8390808 32.5545349 0zm49.459198 0c0 21.8390808 32.5545502 21.8390808 32.5545502 0zm-98.9066467 64.195404c0 21.8391113 32.5545349 21.8391113 32.5545349 0zm49.4474487 0c0 21.8391113 32.5545349 21.8391113 32.5545349 0zm49.459198 0c0 21.8391113 32.5545502 21.8391113 32.5545502 0zm-123.6303635-32.4564819c0 21.8390808 32.5545425 21.8390808 32.5545425 0zm49.4474411 0c0 21.8390808 32.5545502 21.8390808 32.5545502 0zm49.4592133 0c0 21.8390808 32.5545349 21.8390808 32.5545349 0zm49.4396057 0c0 21.8390808 32.5545349 21.8390808 32.5545349 0zm-98.898819-64.1875611c0 21.8390808 32.5545502 21.8390808 32.5545502 0zm49.4513703 0c0 21.8390808 32.5545349 21.8390808 32.5545349 0zm-49.4513703 128.3829651c0 8.9993286 7.2857666 16.281189 16.2851105 16.281189 8.9875946 0 16.2694397-7.2818604 16.2694397-16.281189zm49.4474488 0c0 8.9993286 7.2857666 16.281189 16.281189 16.281189 8.9954376 0 16.281189-7.2818604 16.281189-16.281189zm32.4839935-187.437561c-9.3051605 14.8302307-20.5829315 25.9785309-34.962265 37.0325317-3.5172882 2.7018433-8.4464111 2.7018433-11.9639435 0-14.3793335-11.0501709-25.6568604-22.202301-34.966095-37.0325317-2.41539-3.8430328-2.2035675-8.8346405.7254333-12.301178 9.2778625-10.9599304 18.3321991-18.1321259 33.1899719-23.9786377 4.4937897-1.7725372 9.5287018-1.7174835 13.9794006.1450348 14.1988831 5.9053802 24.3627777 13.1599121 33.2955322 23.7081909 2.9605867 3.5017243 3.1369783 8.5483704.7019655 12.42659zm-124.8996277-119.2950974c-31.5237198 18.1737747-31.5237198 63.8549576.0002441 82.0287247 31.5237122 18.1740265 71.1425171-4.6668091 71.1425171-41.0143585 0-36.347786-39.6188049-59.188385-71.1427612-41.0143662zm25.70401 39.5371781c-7.3004761-4.2089691-7.3004761-14.7881165 0-18.9970856 7.3007202-4.2089767 16.4759216 1.0808411 16.4759216 9.4985352.0000001 8.4177093-9.1752014 13.7075195-16.4759216 9.4985504zm90.2212219-39.5371781c-31.5239563 18.1737747-31.5239563 63.8549576 0 82.0287247 31.5237122 18.1740265 71.1425171-4.6668091 71.1425171-41.0143585 0-36.347786-39.6188049-59.188385-71.1425171-41.0143662zm25.7157593 39.5371781c-7.3007202-4.2089691-7.3007202-14.7881165 0-18.9970856 7.3004761-4.2089767 16.4759216 1.0808411 16.4759216 9.4985352.0000001 8.4177093-9.1754455 13.7075195-16.4759216 9.4985504z"/></svg>